<svg xmlns="http://www.w3.org/2000/svg" xmlns:xlink="http://www.w3.org/1999/xlink" width="800" zoomAndPan="magnify" viewBox="0 0 600 449.999984" height="600" preserveAspectRatio="xMidYMid meet" version="1.0"><defs><clipPath id="456e0b52a6"><path d="M 237 127 L 600 127 L 600 450 L 237 450 Z M 237 127 " clip-rule="nonzero"/></clipPath><clipPath id="9c76a85132"><path d="M 250.203125 13.589844 L 894.835938 114.605469 L 801.597656 709.59375 L 156.964844 608.578125 Z M 250.203125 13.589844 " clip-rule="nonzero"/></clipPath><clipPath id="1ba64207b1"><path d="M 250.203125 13.589844 L 894.835938 114.605469 L 801.597656 709.59375 L 156.964844 608.578125 Z M 250.203125 13.589844 " clip-rule="nonzero"/></clipPath><clipPath id="f40dd0cf73"><path d="M 263 387 L 437 387 L 437 397.515625 L 263 397.515625 Z M 263 387 " clip-rule="nonzero"/></clipPath><clipPath id="d9d727502b"><path d="M 108.410156 312 L 580.910156 312 L 580.910156 336 L 108.410156 336 Z M 108.410156 312 " clip-rule="nonzero"/></clipPath><clipPath id="b82ea19cd4"><path d="M 333 156.015625 L 385 156.015625 L 385 218 L 333 218 Z M 333 156.015625 " clip-rule="nonzero"/></clipPath></defs><rect x="-60" width="720" fill="#ffffff" y="-44.999998" height="539.99998" fill-opacity="1"/><rect x="-60" width="720" fill="#ffffff" y="-44.999998" height="539.99998" fill-opacity="1"/><rect x="-60" width="720" fill="#222831" y="-44.999998" height="539.99998" fill-opacity="1"/><path fill="#393e46" d="M 370.113281 496.261719 C 370.113281 496.261719 625.898438 422.527344 538.453125 227.472656 C 451.007812 32.417969 331.542969 -42.253906 163.945312 82.921875 C -3.652344 208.101562 -26.160156 329.726562 81.878906 419.820312 C 189.914062 509.914062 250.148438 559.992188 370.113281 496.261719 " fill-opacity="1" fill-rule="nonzero"/><g clip-path="url(#456e0b52a6)"><g clip-path="url(#9c76a85132)"><g clip-path="url(#1ba64207b1)"><path fill="#393e46" d="M 558.550781 607.011719 C 558.550781 607.011719 822.667969 573.769531 766.472656 367.527344 C 710.277344 161.285156 603.8125 69.019531 418.859375 166.738281 C 233.902344 264.460938 192.835938 381.136719 285.621094 486.871094 C 378.410156 592.601562 430.164062 651.402344 558.550781 607.011719 " fill-opacity="1" fill-rule="nonzero"/></g></g></g><path fill="#f2f2f2" d="M 559.855469 289.527344 L 558.375 301.3125 L 554.703125 330.585938 L 480.933594 330.585938 C 481.507812 324.027344 482.296875 314.582031 483.136719 304.386719 C 483.222656 303.371094 483.308594 302.34375 483.390625 301.3125 C 485.5 275.6875 487.808594 246.691406 487.808594 246.691406 L 497.507812 248.496094 L 516.324219 251.996094 L 523.992188 253.421875 L 544.523438 257.246094 C 554.761719 259.148438 561.800781 273.976562 559.855469 289.527344 Z M 559.855469 289.527344 " fill-opacity="1" fill-rule="nonzero"/><path fill="#ffb6b6" d="M 504.054688 199.269531 L 513.125 215.148438 L 495.691406 227.507812 L 488.253906 207.992188 Z M 504.054688 199.269531 " fill-opacity="1" fill-rule="nonzero"/><path fill="#ffb6b6" d="M 514.980469 191.8125 C 514.980469 192.546875 514.941406 193.28125 514.871094 194.015625 C 514.796875 194.746094 514.691406 195.476562 514.546875 196.199219 C 514.402344 196.917969 514.226562 197.632812 514.011719 198.335938 C 513.796875 199.042969 513.550781 199.734375 513.269531 200.414062 C 512.988281 201.09375 512.671875 201.757812 512.324219 202.410156 C 511.976562 203.058594 511.601562 203.6875 511.191406 204.300781 C 510.78125 204.914062 510.34375 205.503906 509.878906 206.074219 C 509.410156 206.640625 508.917969 207.1875 508.394531 207.707031 C 507.875 208.226562 507.332031 208.722656 506.761719 209.1875 C 506.191406 209.65625 505.601562 210.09375 504.992188 210.503906 C 504.378906 210.914062 503.75 211.289062 503.097656 211.636719 C 502.449219 211.984375 501.785156 212.300781 501.105469 212.582031 C 500.425781 212.863281 499.734375 213.109375 499.027344 213.324219 C 498.324219 213.539062 497.613281 213.714844 496.890625 213.859375 C 496.167969 214.003906 495.441406 214.113281 494.707031 214.183594 C 493.976562 214.257812 493.242188 214.292969 492.503906 214.292969 C 491.769531 214.292969 491.035156 214.257812 490.300781 214.183594 C 489.570312 214.113281 488.84375 214.003906 488.121094 213.859375 C 487.398438 213.714844 486.6875 213.539062 485.980469 213.324219 C 485.277344 213.109375 484.585938 212.863281 483.90625 212.582031 C 483.226562 212.300781 482.558594 211.984375 481.910156 211.636719 C 481.261719 211.289062 480.632812 210.914062 480.019531 210.503906 C 479.40625 210.09375 478.816406 209.65625 478.246094 209.1875 C 477.679688 208.722656 477.132812 208.226562 476.613281 207.707031 C 476.09375 207.1875 475.597656 206.640625 475.132812 206.074219 C 474.664062 205.503906 474.226562 204.914062 473.820312 204.300781 C 473.410156 203.6875 473.03125 203.058594 472.683594 202.410156 C 472.339844 201.757812 472.023438 201.09375 471.742188 200.414062 C 471.460938 199.734375 471.210938 199.042969 471 198.335938 C 470.785156 197.632812 470.605469 196.917969 470.464844 196.199219 C 470.320312 195.476562 470.210938 194.746094 470.140625 194.015625 C 470.066406 193.28125 470.03125 192.546875 470.03125 191.8125 C 470.03125 191.074219 470.066406 190.339844 470.140625 189.609375 C 470.210938 188.875 470.320312 188.148438 470.464844 187.425781 C 470.605469 186.703125 470.785156 185.992188 471 185.285156 C 471.210938 184.582031 471.460938 183.890625 471.742188 183.207031 C 472.023438 182.527344 472.339844 181.863281 472.683594 181.214844 C 473.03125 180.566406 473.410156 179.933594 473.820312 179.320312 C 474.226562 178.710938 474.664062 178.121094 475.132812 177.550781 C 475.597656 176.980469 476.09375 176.4375 476.613281 175.914062 C 477.132812 175.394531 477.679688 174.902344 478.246094 174.433594 C 478.816406 173.964844 479.40625 173.527344 480.019531 173.121094 C 480.632812 172.710938 481.261719 172.332031 481.910156 171.984375 C 482.558594 171.636719 483.226562 171.324219 483.90625 171.042969 C 484.585938 170.761719 485.277344 170.511719 485.980469 170.300781 C 486.6875 170.085938 487.398438 169.90625 488.121094 169.761719 C 488.84375 169.621094 489.570312 169.511719 490.300781 169.4375 C 491.035156 169.367188 491.769531 169.332031 492.503906 169.332031 C 493.242188 169.332031 493.976562 169.367188 494.707031 169.4375 C 495.441406 169.511719 496.167969 169.621094 496.890625 169.761719 C 497.613281 169.90625 498.324219 170.085938 499.027344 170.300781 C 499.734375 170.511719 500.425781 170.761719 501.105469 171.042969 C 501.785156 171.324219 502.449219 171.636719 503.097656 171.984375 C 503.75 172.332031 504.378906 172.710938 504.992188 173.121094 C 505.601562 173.527344 506.191406 173.964844 506.761719 174.433594 C 507.332031 174.902344 507.875 175.394531 508.394531 175.914062 C 508.917969 176.4375 509.410156 176.980469 509.878906 177.550781 C 510.34375 178.121094 510.78125 178.710938 511.191406 179.320312 C 511.601562 179.933594 511.976562 180.566406 512.324219 181.214844 C 512.671875 181.863281 512.988281 182.527344 513.269531 183.207031 C 513.550781 183.890625 513.796875 184.582031 514.011719 185.285156 C 514.226562 185.992188 514.402344 186.703125 514.546875 187.425781 C 514.691406 188.148438 514.796875 188.875 514.871094 189.609375 C 514.941406 190.339844 514.980469 191.074219 514.980469 191.8125 Z M 514.980469 191.8125 " fill-opacity="1" fill-rule="nonzero"/><path fill="#2f2e41" d="M 490.890625 196.835938 C 489.105469 194.121094 489.808594 192.699219 488.3125 191.703125 C 488.3125 191.703125 487.710938 191.300781 483.410156 191.070312 C 482.445312 184.136719 481.242188 183.292969 481.242188 183.292969 C 479.859375 182.324219 477.800781 182.640625 476.523438 183.234375 C 473.816406 184.488281 474.128906 187.195312 472.308594 187.714844 C 469.789062 188.429688 465.210938 184.394531 464.757812 179.773438 C 464.390625 176.003906 466.820312 172.34375 467.78125 172.535156 C 468.734375 172.726562 471.023438 169.808594 472.257812 169.855469 C 473.097656 169.886719 476.542969 168.386719 477.46875 168.503906 C 478.480469 168.632812 481.816406 170.375 481.957031 169.976562 C 482.921875 167.210938 482.636719 166.445312 483.457031 165.652344 C 484.910156 164.253906 487.285156 165.226562 491.011719 165.753906 C 498.683594 166.828125 500.019531 164.300781 503.949219 166.015625 C 505.9375 166.882812 507.597656 169.214844 510.839844 173.851562 C 515.371094 180.335938 517.636719 183.578125 517.652344 187.359375 C 517.667969 191.214844 515.800781 190.96875 514.980469 196.679688 C 514.070312 203.035156 516.007812 205.9375 513.890625 208.003906 C 512.25 209.597656 508.921875 209.976562 507.175781 208.578125 C 504.179688 206.179688 508.097656 200.394531 504.785156 196.167969 C 502.753906 193.574219 498.664062 192.417969 496.789062 193.703125 C 494.671875 195.152344 495.835938 199.40625 494.347656 199.8125 C 493.070312 200.15625 491.203125 197.3125 490.890625 196.835938 Z M 490.890625 196.835938 " fill-opacity="1" fill-rule="nonzero"/><path fill="#3db1a0" d="M 543.242188 285.378906 C 542.617188 296.101562 540.125 299.484375 539.253906 312.148438 C 539.0625 314.925781 538.949219 318.152344 538.949219 322 C 538.949219 322.980469 538.953125 323.929688 538.953125 324.859375 C 538.953125 326.832031 538.917969 328.695312 538.6875 330.585938 C 538.511719 332.097656 538.214844 333.617188 537.71875 335.21875 L 489.316406 335.21875 C 489.308594 335.207031 489.308594 335.195312 489.304688 335.1875 C 489.019531 333.953125 488.839844 332.777344 488.703125 331.648438 C 488.660156 331.289062 488.621094 330.933594 488.589844 330.585938 C 488.546875 330.175781 488.507812 329.773438 488.46875 329.375 C 488.324219 327.789062 488.175781 326.289062 487.828125 324.859375 C 487.359375 322.878906 486.507812 321.015625 484.765625 319.214844 C 484.050781 318.480469 483.335938 317.90625 482.640625 317.40625 C 482.503906 317.3125 482.371094 317.222656 482.238281 317.128906 C 480.308594 315.804688 478.480469 314.851562 476.902344 312.148438 C 476.875 312.109375 476.851562 312.066406 476.832031 312.027344 C 476.558594 311.550781 475.851562 310.308594 475.339844 308.652344 C 474.796875 306.929688 474.472656 304.765625 475.058594 302.554688 C 476.460938 297.308594 481.648438 296.785156 485.886719 291.488281 C 486.34375 290.917969 486.796875 290.285156 487.226562 289.582031 C 489.144531 286.464844 489.664062 283.714844 490.273438 280.449219 C 490.371094 279.921875 490.457031 279.398438 490.53125 278.890625 C 490.585938 278.511719 490.632812 278.132812 490.671875 277.765625 C 491.007812 274.652344 490.847656 271.96875 490.449219 269.570312 C 489.152344 261.71875 485.324219 256.855469 488.027344 249.808594 C 488.878906 247.59375 490.082031 245.933594 491.296875 244.507812 C 493.871094 241.496094 496.511719 239.539062 496.054688 235.648438 C 495.59375 231.722656 492.617188 231.183594 492.285156 227.753906 C 492.117188 226.019531 492.683594 224.195312 493.746094 222.402344 L 493.746094 222.398438 C 497.144531 216.625 505.632812 211.308594 511.027344 211.480469 C 512.027344 211.507812 512.910156 211.730469 513.644531 212.160156 C 516.308594 213.730469 515.199219 217.160156 519.277344 221.964844 C 522.3125 225.535156 525.746094 226.964844 527.050781 227.640625 C 532.210938 230.332031 536.40625 238.273438 539.253906 248.429688 C 539.277344 248.503906 539.296875 248.582031 539.320312 248.664062 C 541.078125 255.023438 542.324219 262.246094 542.9375 269.570312 C 543.199219 272.671875 543.351562 275.789062 543.382812 278.875 C 543.414062 281.339844 543.359375 283.476562 543.242188 285.378906 Z M 543.242188 285.378906 " fill-opacity="1" fill-rule="nonzero"/><path fill="#ffb6b6" d="M 506.996094 322.109375 L 506.011719 324.859375 L 505.390625 326.578125 L 503.949219 330.585938 L 502.285156 335.21875 L 491.566406 335.21875 L 493.363281 330.585938 L 494.195312 328.425781 L 495.582031 324.859375 L 497.902344 318.863281 Z M 506.996094 322.109375 " fill-opacity="1" fill-rule="nonzero"/><path fill="#3db1a0" d="M 539.421875 247.492188 C 539.394531 247.84375 539.359375 248.238281 539.320312 248.664062 C 538.894531 252.992188 537.890625 260.734375 536.425781 269.570312 C 535.652344 274.230469 534.75 279.199219 533.730469 284.128906 C 531.539062 294.773438 528.816406 305.257812 525.734375 312.148438 C 525.183594 313.390625 524.617188 314.511719 524.039062 315.503906 C 523.601562 316.261719 523.136719 317.007812 522.652344 317.746094 C 521.082031 320.160156 519.320312 322.449219 517.496094 324.585938 C 517.425781 324.675781 517.34375 324.765625 517.261719 324.859375 C 516.96875 325.207031 516.664062 325.550781 516.359375 325.894531 C 514.863281 327.578125 513.339844 329.148438 511.863281 330.585938 C 510.066406 332.339844 508.332031 333.894531 506.777344 335.21875 L 489.375 335.21875 L 489.304688 335.1875 L 486.796875 334.074219 C 486.796875 334.074219 487.511719 333.234375 488.703125 331.648438 C 488.949219 331.328125 489.210938 330.972656 489.496094 330.585938 C 489.84375 330.113281 490.21875 329.589844 490.621094 329.023438 C 491.460938 327.832031 492.414062 326.4375 493.4375 324.859375 C 495.421875 321.800781 497.683594 318.039062 499.96875 313.683594 C 500.230469 313.175781 500.496094 312.664062 500.761719 312.148438 C 500.769531 312.128906 500.78125 312.113281 500.785156 312.097656 C 501.238281 311.214844 501.683594 310.304688 502.128906 309.378906 C 505.917969 301.496094 507.003906 294.957031 507.3125 292.835938 C 507.75 289.835938 508.351562 285.644531 508.191406 281.035156 C 508.082031 277.992188 507.640625 274.777344 506.589844 271.582031 L 506.589844 271.578125 C 506.371094 270.90625 506.125 270.238281 505.847656 269.570312 C 505.351562 268.378906 504.761719 267.199219 504.066406 266.039062 C 500.988281 260.925781 498.484375 260.714844 496.496094 255.144531 C 495.90625 253.492188 494.574219 249.765625 494.980469 245.828125 L 494.980469 245.824219 C 495.03125 245.339844 495.113281 244.847656 495.222656 244.355469 L 495.222656 244.351562 C 495.25 244.214844 495.285156 244.074219 495.324219 243.9375 C 495.636719 242.734375 496.148438 241.539062 496.925781 240.40625 C 498.445312 238.203125 500.523438 236.894531 502.382812 236.117188 L 502.386719 236.109375 C 504.535156 235.214844 506.386719 235.027344 506.746094 234.992188 C 514.707031 234.285156 520.878906 240.976562 524.253906 244.636719 C 525.554688 246.046875 526.75 247.230469 527.839844 248.195312 C 536.324219 255.769531 538.648438 250.929688 539.253906 248.429688 C 539.347656 248.042969 539.394531 247.710938 539.421875 247.492188 Z M 539.421875 247.492188 " fill-opacity="1" fill-rule="nonzero"/><path fill="#3db1a0" d="M 539.449219 247.207031 C 539.449219 247.234375 539.445312 247.328125 539.421875 247.480469 C 539.433594 247.398438 539.441406 247.316406 539.445312 247.242188 C 539.445312 247.222656 539.445312 247.214844 539.449219 247.207031 Z M 539.449219 247.207031 " fill-opacity="1" fill-rule="nonzero"/><path fill="#e6e6e6" d="M 496.175781 362.222656 L 204.082031 362.222656 C 201.371094 362.222656 199.15625 364.429688 199.15625 367.144531 C 199.15625 369.863281 201.371094 372.070312 204.082031 372.070312 L 496.175781 372.070312 C 498.886719 372.070312 501.09375 369.863281 501.09375 367.144531 C 501.09375 364.429688 498.886719 362.222656 496.175781 362.222656 Z M 496.175781 362.222656 " fill-opacity="1" fill-rule="nonzero"/><g clip-path="url(#f40dd0cf73)"><path fill="#e6e6e6" d="M 431.355469 387.664062 L 268.898438 387.664062 C 266.183594 387.664062 263.976562 389.871094 263.976562 392.585938 C 263.976562 395.300781 266.183594 397.515625 268.898438 397.515625 L 431.355469 397.515625 C 434.066406 397.515625 436.28125 395.300781 436.28125 392.585938 C 436.28125 389.871094 434.066406 387.664062 431.355469 387.664062 Z M 431.355469 387.664062 " fill-opacity="1" fill-rule="nonzero"/></g><path fill="#ffb6b6" d="M 236.585938 200.3125 L 254.996094 192.566406 L 262.890625 208.757812 L 243.546875 216.65625 Z M 236.585938 200.3125 " fill-opacity="1" fill-rule="nonzero"/><path fill="#000000" d="M 236.585938 200.3125 L 254.996094 192.566406 L 262.890625 208.757812 L 243.546875 216.65625 Z M 236.585938 200.3125 " fill-opacity="0.098" fill-rule="nonzero"/><path fill="#3db1a0" d="M 239.203125 194.144531 L 257.363281 215.074219 C 257.363281 215.074219 244.730469 254.960938 232.097656 258.515625 C 219.464844 262.070312 196.171875 279.445312 196.171875 279.445312 L 166.957031 260.488281 L 181.167969 239.558594 C 181.167969 239.558594 215.515625 192.566406 224.59375 192.566406 C 233.675781 192.566406 239.203125 194.144531 239.203125 194.144531 Z M 239.203125 194.144531 " fill-opacity="1" fill-rule="nonzero"/><path fill="#2f2e41" d="M 214.667969 330.585938 L 172.390625 330.585938 L 169.71875 327.011719 L 158.808594 312.421875 L 156.296875 309.0625 C 156.296875 309.0625 146.820312 291.6875 148.796875 275.890625 C 150.769531 260.09375 171.300781 256.539062 171.300781 256.539062 L 172.144531 256.539062 L 197.277344 278.632812 L 195.777344 299.191406 L 203.734375 312.421875 Z M 214.667969 330.585938 " fill-opacity="1" fill-rule="nonzero"/><path fill="#2f2e41" d="M 181.050781 330.585938 L 169.71875 330.585938 L 169.71875 313.800781 Z M 181.050781 330.585938 " fill-opacity="1" fill-rule="nonzero"/><path fill="#f2f2f2" d="M 425.433594 305.105469 L 424.023438 312.421875 L 420.527344 330.585938 L 350.257812 330.585938 C 350.804688 326.515625 351.554688 320.652344 352.359375 314.328125 C 352.4375 313.695312 352.519531 313.058594 352.597656 312.421875 C 354.609375 296.515625 356.808594 278.519531 356.808594 278.519531 L 366.046875 279.644531 L 383.96875 281.816406 L 391.273438 282.699219 L 410.828125 285.074219 C 420.582031 286.253906 427.289062 295.453125 425.433594 305.105469 Z M 425.433594 305.105469 " fill-opacity="1" fill-rule="nonzero"/><path fill="#2f2e41" d="M 524.878906 330.585938 L 486.765625 330.585938 C 487.34375 329.902344 487.671875 329.507812 487.671875 329.507812 L 499.097656 327.621094 L 522.636719 323.734375 C 522.636719 323.734375 523.710938 326.511719 524.878906 330.585938 Z M 524.878906 330.585938 " fill-opacity="1" fill-rule="nonzero"/><path fill="#a0616a" d="M 363.210938 208.214844 L 379.785156 231.660156 L 350.875 232.523438 L 347.773438 210.488281 Z M 363.210938 208.214844 " fill-opacity="1" fill-rule="nonzero"/><path fill="#000000" d="M 363.210938 208.214844 L 379.785156 231.660156 L 350.875 232.523438 L 347.773438 210.488281 Z M 363.210938 208.214844 " fill-opacity="0.098" fill-rule="nonzero"/><path fill="#a0616a" d="M 281.472656 256.792969 C 279.347656 250.65625 274.457031 246.78125 270.550781 248.136719 C 266.648438 249.488281 265.207031 255.5625 267.335938 261.699219 C 268.152344 264.164062 269.546875 266.398438 271.402344 268.210938 L 280.742188 294.101562 L 292.792969 289.457031 L 282.308594 264.429688 C 282.644531 261.855469 282.355469 259.234375 281.472656 256.792969 Z M 281.472656 256.792969 " fill-opacity="1" fill-rule="nonzero"/><path fill="#cccccc" d="M 393.667969 244.847656 L 393.644531 268.742188 L 391.421875 277.570312 L 386.851562 295.722656 L 383.523438 312.421875 L 381.042969 324.859375 L 380.160156 329.304688 C 379.492188 329.75 378.828125 330.175781 378.164062 330.585938 L 320.417969 330.585938 C 317.136719 328.617188 315.300781 327.082031 315.300781 327.082031 C 315.300781 327.082031 316.210938 326.230469 317.25 324.859375 C 319 322.546875 321.121094 318.753906 319.824219 315.132812 C 319.550781 314.375 319.480469 313.449219 319.5625 312.421875 C 320.089844 305.621094 327.222656 294.121094 327.222656 294.121094 L 325.746094 277.050781 L 325.097656 269.574219 L 329.664062 233.101562 L 344.542969 224.449219 L 347.109375 224.203125 L 372.46875 222.832031 L 382.949219 223.433594 L 383.425781 223.566406 Z M 393.667969 244.847656 " fill-opacity="1" fill-rule="nonzero"/><path fill="#ffb6b6" d="M 394.792969 330.585938 L 382.160156 330.585938 L 381.605469 324.859375 L 381.59375 324.746094 L 385.167969 324.5 L 394.472656 323.863281 L 394.636719 327.292969 L 394.761719 329.921875 Z M 394.792969 330.585938 " fill-opacity="1" fill-rule="nonzero"/><path fill="#cccccc" d="M 397.902344 250.625 L 403.210938 281.769531 L 398.878906 312.421875 L 398.203125 317.191406 L 397.011719 325.613281 L 396.644531 328.203125 L 396.65625 328.484375 L 396.746094 330.585938 L 381.746094 330.585938 L 381.191406 324.859375 L 381.144531 324.347656 L 380.015625 312.617188 L 379.996094 312.421875 L 377.601562 287.546875 L 382.296875 269.574219 L 382.644531 268.25 L 382.644531 268.246094 L 384.691406 237.464844 L 383.105469 223.476562 L 383.089844 223.347656 C 383.121094 223.367188 383.148438 223.386719 383.183594 223.40625 C 383.265625 223.457031 383.347656 223.511719 383.425781 223.566406 C 392.648438 229.417969 398.144531 239.6875 397.902344 250.625 Z M 397.902344 250.625 " fill-opacity="1" fill-rule="nonzero"/><path fill="#cccccc" d="M 335.035156 239.070312 L 329.269531 233.101562 C 329.269531 233.101562 316.917969 238.671875 316.300781 241.761719 C 315.6875 244.851562 293.882812 290.230469 293.882812 290.230469 L 284.394531 264.886719 L 272.046875 273.132812 C 272.046875 273.132812 281.957031 312.480469 291.222656 314.328125 C 300.488281 316.175781 331.546875 267.757812 331.546875 267.757812 Z M 335.035156 239.070312 " fill-opacity="1" fill-rule="nonzero"/><g clip-path="url(#d9d727502b)"><path fill="#e6e6e6" d="M 569.285156 312.148438 L 120.027344 312.148438 C 113.667969 312.148438 108.496094 317.324219 108.496094 323.683594 C 108.496094 330.046875 113.667969 335.21875 120.027344 335.21875 L 569.285156 335.21875 C 575.644531 335.21875 580.820312 330.046875 580.820312 323.683594 C 580.820312 317.324219 575.644531 312.148438 569.285156 312.148438 Z M 569.285156 312.148438 " fill-opacity="1" fill-rule="nonzero"/></g><path fill="#3f3d56" d="M 391.039062 276.984375 L 390.164062 317.757812 C 390.082031 321.703125 386.859375 324.859375 382.910156 324.859375 L 307.933594 324.859375 C 304.078125 324.859375 300.898438 321.847656 300.6875 318 L 298.457031 277.226562 C 298.230469 273.070312 301.539062 269.574219 305.703125 269.574219 L 383.785156 269.574219 C 387.851562 269.574219 391.125 272.917969 391.039062 276.984375 Z M 391.039062 276.984375 " fill-opacity="1" fill-rule="nonzero"/><path fill="#ffb6b6" d="M 287.9375 192.210938 C 287.9375 192.800781 287.90625 193.386719 287.847656 193.972656 C 287.792969 194.554688 287.707031 195.136719 287.589844 195.714844 C 287.476562 196.289062 287.332031 196.859375 287.164062 197.421875 C 286.992188 197.984375 286.792969 198.535156 286.570312 199.078125 C 286.34375 199.621094 286.09375 200.152344 285.816406 200.671875 C 285.539062 201.191406 285.238281 201.691406 284.914062 202.183594 C 284.585938 202.671875 284.238281 203.140625 283.863281 203.597656 C 283.492188 204.050781 283.097656 204.484375 282.679688 204.902344 C 282.265625 205.316406 281.832031 205.710938 281.378906 206.082031 C 280.921875 206.457031 280.453125 206.804688 279.964844 207.132812 C 279.472656 207.460938 278.972656 207.761719 278.453125 208.039062 C 277.933594 208.316406 277.40625 208.566406 276.863281 208.789062 C 276.320312 209.015625 275.765625 209.214844 275.203125 209.382812 C 274.640625 209.554688 274.074219 209.699219 273.496094 209.8125 C 272.921875 209.925781 272.339844 210.011719 271.753906 210.070312 C 271.171875 210.128906 270.585938 210.15625 269.996094 210.15625 C 269.410156 210.15625 268.824219 210.128906 268.238281 210.070312 C 267.652344 210.011719 267.074219 209.925781 266.496094 209.8125 C 265.921875 209.699219 265.351562 209.554688 264.789062 209.382812 C 264.226562 209.214844 263.675781 209.015625 263.132812 208.789062 C 262.589844 208.566406 262.058594 208.316406 261.539062 208.039062 C 261.023438 207.761719 260.519531 207.460938 260.03125 207.132812 C 259.542969 206.804688 259.070312 206.457031 258.617188 206.082031 C 258.160156 205.710938 257.726562 205.316406 257.3125 204.902344 C 256.894531 204.484375 256.503906 204.050781 256.128906 203.597656 C 255.757812 203.140625 255.40625 202.671875 255.082031 202.183594 C 254.753906 201.691406 254.453125 201.191406 254.175781 200.671875 C 253.898438 200.152344 253.648438 199.621094 253.421875 199.078125 C 253.199219 198.535156 253 197.984375 252.828125 197.421875 C 252.660156 196.859375 252.515625 196.289062 252.402344 195.714844 C 252.289062 195.136719 252.203125 194.554688 252.144531 193.972656 C 252.085938 193.386719 252.058594 192.800781 252.058594 192.210938 C 252.058594 191.625 252.085938 191.039062 252.144531 190.453125 C 252.203125 189.867188 252.289062 189.289062 252.402344 188.710938 C 252.515625 188.136719 252.660156 187.566406 252.828125 187.003906 C 253 186.441406 253.199219 185.886719 253.421875 185.34375 C 253.648438 184.800781 253.898438 184.273438 254.175781 183.753906 C 254.453125 183.234375 254.753906 182.730469 255.082031 182.242188 C 255.40625 181.753906 255.757812 181.28125 256.128906 180.828125 C 256.503906 180.375 256.894531 179.9375 257.3125 179.523438 C 257.726562 179.109375 258.160156 178.714844 258.617188 178.339844 C 259.070312 177.96875 259.542969 177.617188 260.03125 177.292969 C 260.519531 176.964844 261.023438 176.664062 261.539062 176.386719 C 262.058594 176.109375 262.589844 175.859375 263.132812 175.632812 C 263.675781 175.410156 264.226562 175.210938 264.789062 175.039062 C 265.351562 174.871094 265.921875 174.726562 266.496094 174.613281 C 267.074219 174.496094 267.652344 174.410156 268.238281 174.355469 C 268.824219 174.296875 269.410156 174.269531 269.996094 174.269531 C 270.585938 174.269531 271.171875 174.296875 271.753906 174.355469 C 272.339844 174.410156 272.921875 174.496094 273.496094 174.613281 C 274.074219 174.726562 274.640625 174.871094 275.203125 175.039062 C 275.765625 175.210938 276.320312 175.410156 276.863281 175.632812 C 277.40625 175.859375 277.933594 176.109375 278.453125 176.386719 C 278.972656 176.664062 279.472656 176.964844 279.964844 177.292969 C 280.453125 177.617188 280.921875 177.96875 281.378906 178.339844 C 281.832031 178.714844 282.265625 179.109375 282.679688 179.523438 C 283.097656 179.9375 283.492188 180.375 283.863281 180.828125 C 284.238281 181.28125 284.585938 181.753906 284.914062 182.242188 C 285.238281 182.730469 285.539062 183.234375 285.816406 183.753906 C 286.09375 184.273438 286.34375 184.800781 286.570312 185.34375 C 286.792969 185.886719 286.992188 186.441406 287.164062 187.003906 C 287.332031 187.566406 287.476562 188.136719 287.589844 188.710938 C 287.707031 189.289062 287.792969 189.867188 287.847656 190.453125 C 287.90625 191.039062 287.9375 191.625 287.9375 192.210938 Z M 287.9375 192.210938 " fill-opacity="1" fill-rule="nonzero"/><path fill="#ffb6b6" d="M 239.992188 239.164062 L 241.964844 260.488281 L 255.390625 314.59375 L 243.792969 318.65625 L 224.199219 259.699219 L 221.496094 236.003906 Z M 239.992188 239.164062 " fill-opacity="1" fill-rule="nonzero"/><path fill="#3f3d56" d="M 234.652344 276.984375 L 233.78125 317.757812 C 233.695312 321.703125 230.472656 324.859375 226.527344 324.859375 L 151.546875 324.859375 C 147.691406 324.859375 144.511719 321.847656 144.300781 318 L 142.074219 277.226562 C 141.847656 273.070312 145.15625 269.574219 149.316406 269.574219 L 227.398438 269.574219 C 231.46875 269.574219 234.738281 272.917969 234.652344 276.984375 Z M 234.652344 276.984375 " fill-opacity="1" fill-rule="nonzero"/><path fill="#ffb6b6" d="M 271.695312 318.867188 C 271.695312 319.277344 271.601562 319.6875 271.421875 320.089844 C 271.238281 320.492188 270.972656 320.886719 270.617188 321.265625 C 270.257812 321.644531 269.824219 322.007812 269.304688 322.351562 C 268.789062 322.691406 268.203125 323.007812 267.542969 323.300781 C 266.886719 323.589844 266.171875 323.851562 265.398438 324.078125 C 264.625 324.308594 263.808594 324.5 262.949219 324.660156 C 262.089844 324.816406 261.203125 324.933594 260.289062 325.015625 C 259.378906 325.09375 258.457031 325.136719 257.527344 325.136719 C 256.597656 325.136719 255.675781 325.09375 254.761719 325.015625 C 253.851562 324.933594 252.964844 324.816406 252.105469 324.660156 C 251.246094 324.5 250.429688 324.308594 249.65625 324.078125 C 248.882812 323.851562 248.167969 323.589844 247.507812 323.300781 C 246.851562 323.007812 246.265625 322.691406 245.746094 322.351562 C 245.230469 322.007812 244.792969 321.644531 244.4375 321.265625 C 244.082031 320.886719 243.8125 320.492188 243.632812 320.089844 C 243.449219 319.6875 243.359375 319.277344 243.359375 318.867188 C 243.359375 318.457031 243.449219 318.046875 243.632812 317.644531 C 243.8125 317.242188 244.082031 316.847656 244.4375 316.46875 C 244.792969 316.089844 245.230469 315.726562 245.746094 315.386719 C 246.265625 315.042969 246.851562 314.726562 247.507812 314.433594 C 248.167969 314.144531 248.882812 313.882812 249.65625 313.65625 C 250.429688 313.425781 251.246094 313.234375 252.105469 313.078125 C 252.964844 312.917969 253.851562 312.800781 254.761719 312.71875 C 255.675781 312.640625 256.597656 312.597656 257.527344 312.597656 C 258.457031 312.597656 259.378906 312.640625 260.289062 312.71875 C 261.203125 312.800781 262.089844 312.917969 262.949219 313.078125 C 263.808594 313.234375 264.625 313.425781 265.398438 313.65625 C 266.171875 313.882812 266.886719 314.144531 267.542969 314.433594 C 268.203125 314.726562 268.789062 315.042969 269.304688 315.386719 C 269.824219 315.726562 270.257812 316.089844 270.617188 316.46875 C 270.972656 316.847656 271.238281 317.242188 271.421875 317.644531 C 271.601562 318.046875 271.695312 318.457031 271.695312 318.867188 Z M 271.695312 318.867188 " fill-opacity="1" fill-rule="nonzero"/><path fill="#3db1a0" d="M 212.160156 242.425781 L 220.253906 199.277344 C 220.253906 199.277344 242.757812 196.117188 243.546875 203.621094 C 244.335938 211.125 242.980469 247.796875 242.980469 247.796875 Z M 212.160156 242.425781 " fill-opacity="1" fill-rule="nonzero"/><path fill="#2f2e41" d="M 262.753906 195.035156 C 262.753906 195.035156 273.851562 191.070312 278.53125 188.941406 C 283.214844 186.808594 292.511719 201.675781 292.71875 193.824219 C 292.925781 185.972656 289.714844 182.679688 289.714844 182.679688 C 289.714844 182.679688 288.910156 165.5 271.609375 167.648438 C 271.609375 167.648438 275.414062 159.054688 262.925781 157.726562 C 250.433594 156.398438 231 186.570312 232.738281 191.082031 C 234.480469 195.589844 236.566406 199.316406 231.628906 204.140625 C 226.691406 208.960938 217.445312 236.171875 224.480469 243.496094 C 231.515625 250.816406 231.976562 253.996094 227.15625 258.550781 C 222.335938 263.105469 210.941406 273.011719 223.261719 274.730469 C 235.582031 276.449219 222.132812 275.164062 231.316406 267.085938 C 240.503906 259.003906 253.902344 259.335938 248.898438 246.371094 C 243.894531 233.40625 252.589844 214.828125 251.5 212.007812 C 250.414062 209.191406 253.9375 191.292969 253.9375 191.292969 C 253.9375 191.292969 262.140625 190.089844 262.753906 195.035156 Z M 262.753906 195.035156 " fill-opacity="1" fill-rule="nonzero"/><path fill="#a0616a" d="M 373.878906 197.167969 C 373.878906 197.804688 373.847656 198.445312 373.785156 199.082031 C 373.722656 199.71875 373.628906 200.351562 373.503906 200.976562 C 373.378906 201.605469 373.222656 202.222656 373.035156 202.835938 C 372.851562 203.449219 372.636719 204.050781 372.390625 204.640625 C 372.148438 205.234375 371.875 205.808594 371.570312 206.375 C 371.269531 206.9375 370.941406 207.488281 370.585938 208.019531 C 370.230469 208.550781 369.851562 209.0625 369.445312 209.558594 C 369.039062 210.054688 368.609375 210.527344 368.15625 210.980469 C 367.707031 211.429688 367.234375 211.859375 366.738281 212.265625 C 366.242188 212.671875 365.730469 213.054688 365.199219 213.40625 C 364.667969 213.761719 364.121094 214.09375 363.554688 214.394531 C 362.992188 214.695312 362.414062 214.96875 361.824219 215.214844 C 361.230469 215.457031 360.628906 215.671875 360.019531 215.859375 C 359.40625 216.042969 358.785156 216.199219 358.160156 216.324219 C 357.53125 216.449219 356.898438 216.542969 356.265625 216.605469 C 355.628906 216.667969 354.988281 216.699219 354.351562 216.699219 C 353.710938 216.699219 353.070312 216.667969 352.4375 216.605469 C 351.800781 216.542969 351.167969 216.449219 350.539062 216.324219 C 349.914062 216.199219 349.292969 216.042969 348.679688 215.859375 C 348.070312 215.671875 347.46875 215.457031 346.875 215.214844 C 346.285156 214.96875 345.707031 214.695312 345.144531 214.394531 C 344.582031 214.09375 344.03125 213.761719 343.5 213.40625 C 342.96875 213.054688 342.457031 212.671875 341.960938 212.265625 C 341.46875 211.859375 340.992188 211.429688 340.542969 210.980469 C 340.089844 210.527344 339.660156 210.054688 339.253906 209.558594 C 338.847656 209.0625 338.46875 208.550781 338.113281 208.019531 C 337.757812 207.488281 337.429688 206.9375 337.128906 206.375 C 336.824219 205.808594 336.554688 205.234375 336.308594 204.640625 C 336.0625 204.050781 335.847656 203.449219 335.664062 202.835938 C 335.476562 202.222656 335.320312 201.605469 335.195312 200.976562 C 335.070312 200.351562 334.980469 199.71875 334.914062 199.082031 C 334.851562 198.445312 334.820312 197.804688 334.820312 197.167969 C 334.820312 196.527344 334.851562 195.886719 334.914062 195.25 C 334.980469 194.613281 335.070312 193.984375 335.195312 193.355469 C 335.320312 192.726562 335.476562 192.109375 335.664062 191.496094 C 335.847656 190.882812 336.0625 190.28125 336.308594 189.691406 C 336.554688 189.101562 336.824219 188.523438 337.128906 187.957031 C 337.429688 187.394531 337.757812 186.847656 338.113281 186.3125 C 338.46875 185.78125 338.847656 185.269531 339.253906 184.773438 C 339.660156 184.28125 340.089844 183.804688 340.542969 183.355469 C 340.992188 182.902344 341.46875 182.472656 341.960938 182.066406 C 342.457031 181.660156 342.96875 181.28125 343.5 180.925781 C 344.03125 180.570312 344.582031 180.242188 345.144531 179.9375 C 345.707031 179.636719 346.285156 179.363281 346.875 179.121094 C 347.46875 178.875 348.070312 178.660156 348.679688 178.472656 C 349.292969 178.289062 349.914062 178.132812 350.539062 178.007812 C 351.167969 177.882812 351.800781 177.789062 352.4375 177.726562 C 353.070312 177.664062 353.710938 177.632812 354.351562 177.632812 C 354.988281 177.632812 355.628906 177.664062 356.265625 177.726562 C 356.898438 177.789062 357.53125 177.882812 358.160156 178.007812 C 358.785156 178.132812 359.40625 178.289062 360.019531 178.472656 C 360.628906 178.660156 361.230469 178.875 361.824219 179.121094 C 362.414062 179.363281 362.992188 179.636719 363.554688 179.9375 C 364.121094 180.242188 364.667969 180.570312 365.199219 180.925781 C 365.730469 181.28125 366.242188 181.660156 366.738281 182.066406 C 367.234375 182.472656 367.707031 182.902344 368.15625 183.355469 C 368.609375 183.804688 369.039062 184.28125 369.445312 184.773438 C 369.851562 185.269531 370.230469 185.78125 370.585938 186.3125 C 370.941406 186.847656 371.269531 187.394531 371.570312 187.957031 C 371.875 188.523438 372.148438 189.101562 372.390625 189.691406 C 372.636719 190.28125 372.851562 190.882812 373.035156 191.496094 C 373.222656 192.109375 373.378906 192.726562 373.503906 193.355469 C 373.628906 193.984375 373.722656 194.613281 373.785156 195.25 C 373.847656 195.886719 373.878906 196.527344 373.878906 197.167969 Z M 373.878906 197.167969 " fill-opacity="1" fill-rule="nonzero"/><g clip-path="url(#b82ea19cd4)"><path fill="#2f2e41" d="M 355.910156 170.902344 C 355.34375 171.234375 354.585938 170.734375 354.40625 170.105469 C 354.222656 169.476562 354.433594 168.808594 354.644531 168.1875 L 355.699219 165.066406 C 356.445312 162.855469 357.238281 160.5625 358.855469 158.878906 C 361.300781 156.335938 365.179688 155.6875 368.675781 156.15625 C 373.164062 156.757812 377.589844 159.1875 379.679688 163.207031 C 381.765625 167.226562 380.875 172.835938 377.105469 175.34375 C 382.480469 181.503906 384.351562 188.371094 384.058594 196.542969 C 383.761719 204.714844 374.859375 212.234375 369.054688 217.988281 C 367.757812 217.203125 366.578125 213.519531 367.292969 212.179688 C 368.003906 210.84375 366.984375 209.292969 367.867188 208.058594 C 368.75 206.828125 369.488281 208.789062 368.597656 207.566406 C 368.03125 206.792969 370.230469 205.011719 369.394531 204.546875 C 365.34375 202.308594 363.996094 197.261719 361.453125 193.394531 C 358.386719 188.730469 353.136719 185.574219 347.578125 185.046875 C 344.519531 184.761719 341.285156 185.28125 338.777344 187.058594 C 336.269531 188.835938 334.644531 192.015625 335.226562 195.035156 C 333.71875 193.503906 332.96875 191.261719 333.253906 189.132812 C 333.535156 187.003906 334.84375 185.035156 336.699219 183.949219 C 335.570312 180.222656 336.535156 175.929688 339.152344 173.046875 C 341.769531 170.160156 352.382812 170.652344 356.203125 171.410156 Z M 355.910156 170.902344 " fill-opacity="1" fill-rule="nonzero"/></g><path fill="#2f2e41" d="M 356.5 185.160156 C 361.5625 185.707031 365.214844 190.089844 368.296875 194.140625 C 370.078125 196.472656 371.9375 199.050781 371.894531 201.984375 C 371.847656 204.949219 369.867188 207.492188 368.917969 210.304688 C 367.371094 214.898438 368.878906 220.363281 372.566406 223.511719 C 368.921875 224.203125 364.984375 221.472656 364.355469 217.816406 C 363.625 213.5625 366.847656 209.457031 366.46875 205.15625 C 366.132812 201.367188 363.144531 198.453125 360.609375 195.617188 C 358.070312 192.785156 355.6875 189.027344 356.855469 185.40625 Z M 356.5 185.160156 " fill-opacity="1" fill-rule="nonzero"/><path fill="#ffb6b6" d="M 432.136719 314.617188 C 427.125 317.464844 424.535156 322.363281 426.347656 325.554688 C 428.164062 328.742188 433.695312 329.019531 438.707031 326.164062 C 440.726562 325.054688 442.449219 323.472656 443.730469 321.558594 L 464.8125 309.210938 L 458.808594 299.4375 L 438.664062 312.648438 C 436.363281 312.773438 434.125 313.449219 432.136719 314.617188 Z M 432.136719 314.617188 " fill-opacity="1" fill-rule="nonzero"/><path fill="#3db1a0" d="M 503.511719 224.0625 C 502.882812 223.8125 497.355469 221.71875 492.308594 224.480469 C 486.511719 227.65625 485.617188 234.90625 485.300781 237.449219 C 484.578125 243.324219 486.714844 244.640625 487.164062 250.585938 C 488.007812 261.710938 490.234375 249.019531 486.679688 254.097656 C 485.449219 255.855469 472.886719 283.09375 465.957031 288.429688 C 452.476562 298.804688 443.917969 306.113281 443.917969 306.113281 L 453.691406 316.730469 C 453.691406 316.730469 469.128906 312.613281 482.773438 303.75 C 496.773438 294.660156 503.769531 290.113281 509.183594 281.222656 C 509.652344 280.457031 520.808594 261.503906 514.816406 240.546875 C 513.449219 235.765625 510.945312 227.007812 503.511719 224.0625 Z M 503.511719 224.0625 " fill-opacity="1" fill-rule="nonzero"/><path fill="#3f3d56" d="M 553.960938 276.984375 L 553.089844 317.757812 C 553.003906 321.703125 549.78125 324.859375 545.835938 324.859375 L 470.855469 324.859375 C 467.003906 324.859375 463.820312 321.847656 463.609375 318 L 461.382812 277.226562 C 461.15625 273.070312 464.464844 269.574219 468.628906 269.574219 L 546.707031 269.574219 C 550.777344 269.574219 554.050781 272.917969 553.960938 276.984375 Z M 553.960938 276.984375 " fill-opacity="1" fill-rule="nonzero"/></svg>