<svg xmlns="http://www.w3.org/2000/svg" xmlns:xlink="http://www.w3.org/1999/xlink" width="500" zoomAndPan="magnify" viewBox="0 0 375 374.999991" height="500" preserveAspectRatio="xMidYMid meet" version="1.0"><defs><clipPath id="57c7295f94"><path d="M 28.460938 55.308594 L 346.460938 55.308594 L 346.460938 352.308594 L 28.460938 352.308594 Z M 28.460938 55.308594 " clip-rule="nonzero"/></clipPath><clipPath id="aa2b40eb80"><path d="M 105 11 L 306 11 L 306 333 L 105 333 Z M 105 11 " clip-rule="nonzero"/></clipPath><clipPath id="d398ba15b0"><path d="M 169.574219 -18.621094 L 359.292969 35.363281 L 266.511719 361.421875 L 76.792969 307.433594 Z M 169.574219 -18.621094 " clip-rule="nonzero"/></clipPath><clipPath id="e46658b06f"><path d="M 169.574219 -18.621094 L 359.292969 35.363281 L 266.511719 361.421875 L 76.792969 307.433594 Z M 169.574219 -18.621094 " clip-rule="nonzero"/></clipPath><clipPath id="9b7fc2918e"><path d="M 124 141 L 248 141 L 248 312 L 124 312 Z M 124 141 " clip-rule="nonzero"/></clipPath><clipPath id="26b81cccfc"><path d="M 169.574219 -18.621094 L 359.292969 35.363281 L 266.511719 361.421875 L 76.792969 307.433594 Z M 169.574219 -18.621094 " clip-rule="nonzero"/></clipPath><clipPath id="b133128435"><path d="M 169.574219 -18.621094 L 359.292969 35.363281 L 266.511719 361.421875 L 76.792969 307.433594 Z M 169.574219 -18.621094 " clip-rule="nonzero"/></clipPath><clipPath id="1530a66ec5"><path d="M 102 10 L 308 10 L 308 333 L 102 333 Z M 102 10 " clip-rule="nonzero"/></clipPath><clipPath id="f192a3eff2"><path d="M 169.574219 -18.621094 L 359.292969 35.363281 L 266.511719 361.421875 L 76.792969 307.433594 Z M 169.574219 -18.621094 " clip-rule="nonzero"/></clipPath><clipPath id="1d841303d8"><path d="M 169.574219 -18.621094 L 359.292969 35.363281 L 266.511719 361.421875 L 76.792969 307.433594 Z M 169.574219 -18.621094 " clip-rule="nonzero"/></clipPath></defs><g clip-path="url(#57c7295f94)"><path fill="#00adb5" d="M 45.707031 55.3125 L 329.214844 55.3125 C 333.789062 55.3125 338.175781 57.125 341.410156 60.355469 C 344.644531 63.589844 346.460938 67.972656 346.460938 72.542969 L 346.460938 335.078125 C 346.460938 339.648438 344.644531 344.03125 341.410156 347.261719 C 338.175781 350.492188 333.789062 352.308594 329.214844 352.308594 L 45.707031 352.308594 C 41.132812 352.308594 36.746094 350.492188 33.511719 347.261719 C 30.277344 344.03125 28.460938 339.648438 28.460938 335.078125 L 28.460938 72.542969 C 28.460938 67.972656 30.277344 63.589844 33.511719 60.355469 C 36.746094 57.125 41.132812 55.3125 45.707031 55.3125 " fill-opacity="1" fill-rule="nonzero"/></g><g clip-path="url(#aa2b40eb80)"><g clip-path="url(#d398ba15b0)"><g clip-path="url(#e46658b06f)"><path fill="#f5dfc8" d="M 256.722656 277.5625 C 245.132812 296.527344 218.332031 302.652344 218.332031 302.652344 L 214.238281 308.429688 L 213.351562 320.164062 C 204.03125 336.640625 175.667969 334.152344 146.394531 325.753906 C 117.183594 317.375 105.109375 285.886719 105.109375 285.886719 L 112.160156 276.660156 L 115.144531 268.320312 C 107.527344 262.546875 106.835938 239.132812 106.835938 239.132812 C 106.835938 239.132812 106.835938 239.132812 106.601562 221.296875 C 106.363281 203.460938 125.617188 187.96875 125.617188 187.96875 L 145.535156 131.136719 L 157.082031 54.429688 C 157.082031 54.429688 161.339844 17.925781 171.480469 12.914062 C 181.621094 7.902344 193.503906 16.867188 198.785156 25.109375 C 204.066406 33.351562 194.191406 77.859375 194.191406 77.859375 C 194.191406 77.859375 190.546875 134.210938 190.957031 138.753906 C 191.367188 143.296875 194.308594 142.769531 194.308594 142.769531 L 201.59375 133.203125 L 220.445312 94.722656 L 231.503906 65.667969 L 245.683594 35.457031 C 258.210938 25.40625 280.957031 13.429688 284.957031 37.167969 C 288.960938 60.914062 268.898438 93.601562 263.476562 103.5625 C 258.058594 113.527344 245.78125 150.679688 245.78125 150.679688 C 245.78125 150.679688 262.144531 141.039062 275.089844 151.054688 C 288.035156 161.070312 281.113281 179.660156 281.113281 179.660156 C 305.300781 179.121094 305.589844 199.625 305.589844 199.625 C 300.746094 241.070312 270.746094 252.210938 270.746094 252.210938 M 270.746094 252.210938 L 257.050781 279.765625 L 256.722656 277.5625 " fill-opacity="1" fill-rule="nonzero"/></g></g></g><g clip-path="url(#9b7fc2918e)"><g clip-path="url(#26b81cccfc)"><g clip-path="url(#b133128435)"><path fill="#e0bfae" d="M 217.308594 155.035156 C 216.949219 154.863281 216.632812 154.773438 216.269531 154.605469 C 197.527344 147.5 180.089844 144.171875 165.40625 142.648438 C 183.109375 139.789062 196.613281 141.863281 205.015625 143.914062 C 217.757812 146.992188 234.613281 154.039062 235.957031 158.640625 C 236.085938 158.675781 236.148438 158.695312 236.273438 158.730469 L 236.039062 159.070312 C 236.066406 159.214844 236.078125 159.421875 236.039062 159.550781 C 235.90625 160.257812 235.347656 160.78125 234.621094 161.1875 L 226.457031 173.363281 C 208.421875 173.339844 190.402344 173.25 172.367188 173.222656 C 173.085938 172.132812 174.316406 170.441406 176.320312 168.902344 C 184.9375 162.300781 193.492188 169.089844 203.914062 163.820312 C 210.359375 160.546875 210.824219 156.050781 217.308594 155.035156 Z M 239.710938 242.835938 C 236.574219 237.109375 235.636719 231.800781 235.324219 228.582031 L 222.277344 225.140625 L 213.8125 217.5625 L 201.972656 215.621094 L 183.4375 235.058594 C 189.417969 239.894531 195.457031 244.742188 201.4375 249.578125 C 201.726562 250.953125 202.382812 253.179688 203.898438 253.613281 C 209.105469 255.164062 217.484375 233.855469 223.351562 235.253906 C 226.726562 236.074219 225.390625 243.390625 230.785156 248.601562 C 235.332031 252.960938 242.074219 253.445312 247.710938 253.007812 C 245.488281 251.015625 242.316406 247.796875 239.710938 242.835938 Z M 202.65625 304.863281 C 181.933594 315.238281 158.480469 314.148438 142.257812 301.769531 C 130.625 292.878906 126.1875 280.722656 124.480469 274.996094 C 129.53125 279.972656 137.753906 286.738281 149.386719 290.59375 C 157.109375 293.128906 161.613281 292.847656 171.359375 294.734375 C 178.863281 296.121094 189.722656 298.871094 202.65625 304.863281 " fill-opacity="1" fill-rule="nonzero"/></g></g></g><g clip-path="url(#1530a66ec5)"><g clip-path="url(#f192a3eff2)"><g clip-path="url(#1d841303d8)"><path fill="#f5dfc8" d="M 299.378906 220.257812 C 296.859375 226.011719 293.617188 231.421875 289.648438 236.277344 C 285.628906 241.0625 280.886719 245.292969 275.511719 248.394531 C 272.824219 249.941406 269.957031 251.167969 267.03125 252.109375 C 264.046875 253.027344 261.023438 253.597656 258.023438 253.628906 C 255.015625 253.65625 252.046875 253.085938 249.4375 251.730469 C 246.828125 250.375 244.621094 248.316406 242.933594 245.863281 C 241.269531 243.347656 240.023438 240.539062 239.148438 237.636719 C 238.6875 236.144531 238.289062 234.667969 238.039062 233.167969 C 237.785156 232.140625 237.65625 231.15625 237.484375 230.085938 C 240.347656 229.601562 243.078125 228.613281 245.613281 227.359375 C 249.265625 225.539062 252.582031 223.210938 255.636719 220.613281 C 261.75 215.40625 266.839844 209.230469 271.296875 202.667969 C 275.6875 196.089844 279.519531 189.078125 282.023438 181.484375 C 284.785156 181.589844 287.644531 182.0625 290.289062 182.816406 C 293.1875 183.640625 296.039062 184.859375 298.398438 186.621094 C 300.757812 188.378906 302.605469 190.746094 303.535156 193.460938 C 304.03125 194.828125 304.304688 196.265625 304.347656 197.777344 C 304.394531 199.285156 304.421875 200.859375 304.265625 202.382812 C 303.703125 208.417969 301.839844 214.492188 299.378906 220.257812 Z M 255.984375 275.855469 C 253.101562 279.527344 249.867188 282.761719 246.316406 285.902344 C 242.851562 289 239.179688 291.839844 235.269531 294.332031 C 231.316406 296.75 227.152344 298.695312 222.738281 300.09375 C 218.324219 301.492188 213.753906 302.234375 209.140625 302.421875 C 199.910156 302.792969 190.640625 300.902344 181.6875 297.671875 C 189.753906 302.828125 199.527344 305.335938 209.195312 305.09375 C 210.914062 305.035156 212.589844 304.898438 214.277344 304.699219 C 214.082031 304.917969 213.882812 305.132812 213.730469 305.429688 C 212.757812 306.921875 212.023438 308.550781 211.539062 310.253906 C 210.992188 311.933594 210.761719 313.707031 210.738281 315.46875 C 210.753906 316.359375 210.773438 317.25 210.875 318.097656 C 210.921875 318.65625 211.046875 319.167969 211.171875 319.679688 C 210.976562 319.894531 210.796875 320.046875 210.597656 320.265625 C 210.140625 320.679688 209.683594 321.09375 209.160156 321.488281 L 207.613281 322.613281 L 206.023438 323.660156 C 203.820312 324.941406 201.507812 326.121094 199.039062 326.914062 C 194.121094 328.648438 188.875 329.605469 183.585938 330.003906 C 173 330.601562 162.175781 329.15625 151.8125 326.34375 C 141.542969 323.421875 131.652344 318.699219 123.648438 311.65625 C 121.605469 309.984375 119.777344 308.039062 117.949219 306.085938 L 115.425781 302.984375 C 114.632812 301.945312 113.855469 300.835938 113.082031 299.730469 C 112.308594 298.628906 111.679688 297.492188 110.984375 296.34375 C 110.351562 295.210938 109.738281 294.015625 109.128906 292.820312 C 108.097656 290.6875 107.234375 288.46875 106.617188 286.316406 C 109.441406 284.058594 111.425781 281.152344 113.03125 278.136719 C 113.914062 276.480469 114.601562 274.773438 115.292969 273.0625 C 115.535156 272.449219 115.714844 271.820312 115.976562 271.144531 C 116.480469 271.765625 117.003906 272.320312 117.523438 272.878906 C 118.890625 274.289062 120.246094 275.761719 121.730469 277.003906 C 122.503906 277.632812 123.195312 278.304688 123.972656 278.933594 L 126.332031 280.695312 C 129.578125 282.914062 132.964844 284.898438 136.535156 286.460938 C 143.683594 289.582031 151.347656 291.355469 158.988281 291.554688 C 151.464844 290.230469 144.203125 287.753906 137.578125 284.234375 C 130.9375 280.78125 125 276.027344 120.195312 270.4375 C 115.320312 264.832031 111.832031 258.1875 109.53125 251.203125 C 109.222656 250.363281 109.015625 249.421875 108.789062 248.539062 L 108.128906 245.832031 L 107.675781 243.117188 L 107.453125 241.761719 C 107.371094 241.328125 107.371094 240.851562 107.304688 240.355469 L 106.996094 237.613281 C 106.914062 236.703125 106.914062 235.75 106.894531 234.859375 C 106.8125 233 106.9375 231.128906 107.042969 229.320312 C 107.335938 225.660156 107.914062 221.945312 108.855469 218.398438 C 109.234375 216.597656 109.859375 214.871094 110.441406 213.0625 C 110.757812 212.199219 111.132812 211.351562 111.449219 210.488281 C 111.761719 209.625 112.140625 208.78125 112.578125 207.953125 C 115.699219 201.28125 120.328125 195.316406 126.113281 190.765625 C 131.855469 186.136719 138.625 182.6875 145.757812 180.355469 C 152.84375 177.949219 160.34375 176.476562 167.863281 175.414062 C 171.613281 174.917969 175.445312 174.371094 179.160156 174 C 182.9375 173.644531 186.609375 173.667969 190.394531 173.996094 C 194.164062 174.386719 197.980469 174.863281 201.867188 175.082031 C 205.753906 175.300781 209.566406 175.300781 213.398438 175.234375 C 221.097656 174.972656 228.78125 174.300781 236.351562 173.527344 C 240.128906 173.171875 243.925781 172.753906 247.695312 172.667969 C 249.539062 172.648438 251.449219 172.644531 253.21875 172.878906 C 254.992188 173.113281 256.707031 173.53125 258.160156 174.421875 C 259.546875 175.292969 260.679688 176.570312 261.25 178.160156 C 261.835938 179.6875 261.933594 181.488281 261.832031 183.292969 C 261.554688 186.894531 260.390625 190.507812 258.945312 193.910156 C 256.164062 200.8125 251.347656 206.726562 245.027344 210.511719 C 238.691406 214.359375 231.234375 215.914062 223.851562 216.265625 C 220.125 216.429688 216.367188 216.246094 212.679688 215.808594 C 208.992188 215.371094 205.230469 214.710938 201.703125 213.707031 L 200.441406 213.347656 L 199.644531 214.480469 C 198.1875 216.722656 196.402344 218.9375 194.648438 221.023438 C 192.835938 223.097656 190.847656 225.050781 188.816406 226.921875 C 184.710938 230.585938 180.125 233.777344 175.128906 236.03125 C 170.128906 238.285156 164.730469 239.539062 159.261719 239.617188 C 156.527344 239.65625 153.757812 239.34375 151.023438 238.90625 C 148.269531 238.53125 145.570312 237.96875 142.554688 237.792969 C 144.894531 239.617188 147.585938 240.925781 150.4375 241.667969 C 153.273438 242.476562 156.25 242.777344 159.203125 242.9375 C 165.140625 243.128906 171.183594 241.988281 176.632812 239.589844 C 179.113281 238.527344 181.441406 237.285156 183.679688 235.878906 C 185.203125 236.992188 186.617188 238.007812 188.039062 239.226562 C 190.234375 241.078125 192.308594 242.894531 194.304688 244.960938 C 196.320312 246.964844 198.257812 249.011719 200.160156 251.1875 L 205.886719 257.855469 C 205.21875 254.941406 203.894531 252.183594 202.308594 249.621094 C 200.722656 247.058594 198.875 244.695312 196.6875 242.574219 C 194.578125 240.40625 192.113281 238.550781 189.523438 237.132812 C 188.132812 236.261719 186.613281 235.621094 185.054688 235.109375 C 187.328125 233.578125 189.453125 231.871094 191.402344 230.042969 C 193.59375 228.078125 195.570312 225.917969 197.441406 223.65625 C 199.011719 221.722656 200.539062 219.707031 201.914062 217.511719 C 205.351562 218.351562 208.734375 218.90625 212.1875 219.207031 C 212.457031 219.21875 212.726562 219.226562 212.917969 219.277344 C 215.332031 222.28125 218.167969 224.996094 221.53125 227.042969 C 225.050781 229.269531 229.371094 230.359375 233.535156 230.320312 C 233.597656 230.339844 233.679688 230.292969 233.742188 230.3125 C 233.960938 231.464844 234.238281 232.632812 234.519531 233.800781 C 234.882812 235.402344 235.324219 236.957031 235.894531 238.546875 C 236.96875 241.710938 238.410156 244.78125 240.355469 247.511719 C 242.363281 250.261719 244.941406 252.695312 248.054688 254.195312 C 251.148438 255.757812 254.660156 256.347656 257.953125 256.261719 C 261.308594 256.195312 264.570312 255.492188 267.71875 254.480469 C 267.941406 254.410156 268.167969 254.335938 268.394531 254.265625 C 265.359375 262.046875 261.230469 269.382812 255.984375 275.855469 Z M 157.175781 67.734375 C 158.003906 60.753906 158.816406 53.835938 159.769531 46.890625 C 160.769531 40.027344 161.789062 33.097656 163.777344 26.585938 C 164.820312 23.40625 166.082031 20.160156 168.007812 17.710938 C 168.984375 16.421875 170.125 15.523438 171.417969 14.800781 C 172.066406 14.441406 172.804688 14.246094 173.480469 14.027344 C 174.242188 13.972656 174.902344 13.820312 175.789062 13.796875 C 179.164062 13.671875 182.511719 13.875 185.679688 14.707031 C 186.453125 14.859375 187.234375 15.21875 187.972656 15.496094 C 188.691406 15.835938 189.429688 16.113281 190.117188 16.582031 C 191.519531 17.390625 192.742188 18.351562 193.769531 19.527344 C 194.796875 20.703125 195.707031 22.054688 196.375 23.535156 C 197.058594 24.957031 197.5625 26.53125 197.925781 28.132812 C 198.648438 31.332031 198.84375 34.722656 198.808594 38.1875 C 198.703125 45.03125 197.574219 51.859375 196.242188 58.699219 L 194.128906 68.988281 C 193.476562 72.480469 192.90625 75.925781 192.378906 79.453125 C 191.34375 86.441406 190.515625 93.421875 189.953125 100.410156 C 189.378906 107.464844 188.964844 114.425781 188.78125 121.523438 C 188.792969 125.066406 188.742188 128.59375 188.964844 132.128906 C 189.171875 134.980469 189.402344 137.769531 190.070312 140.679688 C 188.074219 140.519531 186.039062 140.488281 184.070312 140.472656 C 177.746094 140.441406 171.476562 141.179688 165.40625 142.648438 C 171.6875 142.597656 177.847656 142.71875 183.964844 143.230469 C 187.007812 143.554688 190.066406 143.808594 193.113281 144.335938 C 196.136719 144.722656 199.167969 145.3125 202.121094 145.949219 C 205.136719 146.601562 208.070312 147.300781 211.011719 148.203125 C 213.988281 148.984375 216.894531 150.015625 219.757812 150.96875 C 225.148438 152.839844 230.429688 155.09375 235.757812 157.425781 C 234.214844 159.03125 232.820312 160.8125 231.449219 162.53125 C 229.21875 165.574219 227.226562 168.75 225.511719 172.144531 C 221.402344 172.46875 217.308594 172.738281 213.253906 172.875 C 209.484375 172.960938 205.667969 172.964844 201.90625 172.78125 C 198.167969 172.53125 194.433594 172.015625 190.535156 171.585938 C 186.703125 171.175781 182.703125 171.125 178.859375 171.464844 C 174.957031 171.78125 171.207031 172.28125 167.394531 172.761719 C 159.8125 173.804688 152.15625 175.097656 144.738281 177.480469 C 139.074219 179.203125 133.542969 181.648438 128.480469 184.835938 C 138.089844 160.40625 145.753906 135.152344 150.90625 109.382812 C 153.652344 95.664062 155.519531 81.691406 157.175781 67.734375 Z M 200.277344 138.070312 C 200.789062 137.464844 201.238281 136.847656 201.769531 136.179688 C 202.21875 135.558594 202.730469 134.957031 203.199219 134.273438 C 204.050781 132.949219 204.949219 131.707031 205.738281 130.363281 C 209.007812 125.101562 211.808594 119.566406 214.339844 114.023438 C 219.480469 102.890625 223.839844 91.402344 228.121094 79.953125 C 230.289062 74.238281 232.398438 68.507812 234.613281 62.875 C 236.828125 57.242188 239.125 51.5625 241.746094 46.183594 C 244.367188 40.800781 247.300781 35.507812 251.371094 31.496094 C 253.4375 29.496094 255.730469 27.902344 258.382812 26.953125 C 260.972656 25.988281 263.816406 25.570312 266.722656 25.652344 C 268.152344 25.648438 269.605469 25.792969 271.050781 25.996094 C 272.425781 26.183594 273.765625 26.496094 275.050781 27 C 277.5625 27.984375 279.730469 29.691406 281.136719 31.929688 C 282.464844 34.214844 283.375 36.992188 283.730469 39.816406 C 284.082031 42.640625 284.050781 45.625 283.765625 48.542969 C 283.179688 54.433594 281.609375 60.183594 279.644531 65.886719 C 277.746094 71.609375 275.421875 77.144531 272.785156 82.585938 C 270.144531 88.03125 267.144531 93.308594 264.191406 98.660156 C 261.238281 104.015625 258.503906 109.570312 256.015625 115.195312 C 251.042969 126.441406 247.214844 138.222656 244.371094 150.140625 C 242.699219 151.230469 241.132812 152.417969 239.613281 153.691406 C 238.335938 154.824219 237.125 155.976562 236.019531 157.226562 C 231.363281 153.726562 226.214844 150.761719 220.84375 148.347656 C 215.128906 145.699219 209.054688 143.835938 202.917969 142.429688 C 200.992188 142.019531 199.050781 141.671875 197.152344 141.402344 C 198.265625 140.355469 199.273438 139.214844 200.277344 138.070312 Z M 250.726562 149.566406 C 252.5 148.847656 254.261719 148.394531 256.113281 148.101562 C 257.96875 147.816406 259.8125 147.792969 261.683594 147.917969 C 265.488281 148.1875 269.195312 149.035156 272.523438 150.730469 C 275.792969 152.410156 278.503906 155.089844 280 158.441406 C 281.578125 161.75 282.058594 165.5625 281.792969 169.367188 C 281.609375 173.128906 280.738281 176.894531 279.496094 180.558594 C 277.019531 187.820312 273.222656 194.707031 268.886719 201.097656 C 264.484375 207.46875 259.441406 213.457031 253.609375 218.398438 C 250.671875 220.832031 247.515625 223.066406 244.128906 224.6875 C 240.738281 226.3125 237.078125 227.445312 233.488281 227.378906 C 229.882812 227.375 226.292969 226.355469 223.175781 224.375 C 221.152344 223.121094 219.296875 221.503906 217.640625 219.671875 C 219.671875 219.703125 221.769531 219.753906 223.792969 219.582031 C 231.546875 219.132812 239.484375 217.308594 246.328125 213.128906 C 253.152344 209.011719 258.414062 202.476562 261.257812 195.113281 C 262.757812 191.523438 263.910156 187.699219 264.25 183.640625 C 264.347656 181.628906 264.273438 179.496094 263.496094 177.4375 C 262.722656 175.378906 261.25 173.597656 259.398438 172.457031 C 257.542969 171.316406 255.429688 170.855469 253.46875 170.566406 C 251.445312 170.261719 249.519531 170.328125 247.546875 170.3125 C 243.636719 170.421875 239.839844 170.84375 236.0625 171.195312 C 233.605469 171.453125 231.152344 171.707031 228.710938 171.898438 C 231.945312 165.804688 236.148438 160.121094 241.273438 155.523438 C 244.066406 153.117188 247.265625 150.964844 250.726562 149.566406 Z M 306.816406 202.496094 C 307.015625 200.851562 307.003906 199.210938 307.011719 197.511719 C 306.890625 195.777344 306.628906 194.070312 306.078125 192.414062 C 304.980469 189.105469 302.753906 186.15625 300.070312 184.097656 C 297.339844 181.960938 294.273438 180.546875 291.078125 179.566406 C 288.386719 178.730469 285.6875 178.167969 282.898438 177.921875 C 283.605469 175.195312 284.125 172.414062 284.332031 169.546875 C 284.585938 165.535156 284.085938 161.308594 282.320312 157.46875 C 280.617188 153.648438 277.425781 150.492188 273.738281 148.625 C 270.046875 146.761719 265.945312 145.863281 261.949219 145.542969 C 257.894531 145.207031 253.691406 145.851562 249.863281 147.34375 C 249.25 147.582031 248.703125 147.835938 248.136719 148.148438 C 250.929688 137.371094 254.542969 126.824219 259.085938 116.609375 C 261.535156 111.113281 264.300781 105.703125 267.234375 100.414062 C 270.171875 95.121094 273.25 89.800781 275.988281 84.25 C 278.722656 78.695312 281.101562 72.972656 283.039062 67.125 C 285.039062 61.292969 286.695312 55.230469 287.328125 48.941406 C 287.667969 45.839844 287.707031 42.582031 287.320312 39.40625 C 286.867188 36.214844 285.996094 33.039062 284.203125 30.011719 C 282.390625 27.046875 279.476562 24.855469 276.351562 23.625 C 274.769531 22.96875 273.175781 22.582031 271.53125 22.390625 C 269.945312 22.210938 268.34375 22.09375 266.726562 22.042969 C 263.550781 21.957031 260.210938 22.4375 257.09375 23.59375 C 253.972656 24.746094 251.175781 26.675781 248.832031 28.933594 C 244.1875 33.535156 241.160156 39.140625 238.441406 44.632812 C 235.765625 50.203125 233.46875 55.878906 231.238281 61.574219 C 229.003906 67.269531 226.832031 72.984375 224.726562 78.71875 C 220.382812 90.144531 216.125 101.527344 211.035156 112.46875 C 208.460938 117.933594 205.757812 123.359375 202.605469 128.453125 C 201.835938 129.730469 200.953125 130.910156 200.179688 132.1875 C 199.796875 132.828125 199.300781 133.367188 198.851562 133.988281 C 198.402344 134.609375 197.972656 135.167969 197.476562 135.707031 C 196.554688 136.804688 195.566406 137.886719 194.546875 138.824219 L 193.75 139.480469 C 193.488281 139.679688 193.226562 139.878906 193.03125 140.09375 C 192.929688 140.199219 192.75 140.355469 192.652344 140.460938 C 192.578125 140.234375 192.589844 139.96875 192.535156 139.679688 C 192.4375 138.832031 192.335938 137.988281 192.296875 137.160156 L 192.140625 134.597656 L 192.066406 131.988281 C 191.957031 128.554688 192.003906 125.027344 192.101562 121.582031 C 192.246094 114.609375 192.660156 107.648438 193.265625 100.742188 C 193.886719 93.769531 194.699219 86.851562 195.699219 79.988281 C 196.207031 76.527344 196.84375 73.097656 197.460938 69.734375 L 199.570312 59.441406 C 200.875 52.457031 202.054688 45.441406 202.210938 38.199219 C 202.277344 34.613281 202.09375 30.949219 201.207031 27.363281 C 200.839844 25.554688 200.261719 23.757812 199.441406 22.09375 C 198.636719 20.367188 197.609375 18.714844 196.304688 17.324219 C 195.691406 16.601562 194.917969 15.972656 194.226562 15.300781 C 193.429688 14.734375 192.65625 14.105469 191.828125 13.667969 C 191.019531 13.160156 190.109375 12.769531 189.265625 12.390625 C 188.398438 12.078125 187.472656 11.746094 186.59375 11.496094 C 182.984375 10.535156 179.242188 10.289062 175.644531 10.488281 C 174.769531 10.445312 173.765625 10.636719 172.753906 10.828125 C 171.792969 11.09375 170.769531 11.347656 169.878906 11.847656 C 168.054688 12.753906 166.5 14.152344 165.324219 15.65625 C 162.953125 18.726562 161.632812 22.160156 160.523438 25.589844 C 158.421875 32.480469 157.386719 39.472656 156.351562 46.460938 C 155.398438 53.40625 154.632812 60.40625 153.738281 67.367188 C 152.097656 81.265625 150.207031 95.09375 147.460938 108.8125 C 142.121094 135.953125 134 162.578125 123.683594 188.304688 C 117.492188 193.078125 112.488281 199.417969 109.050781 206.472656 C 105.53125 213.570312 103.535156 221.308594 102.992188 229.1875 C 102.914062 231.140625 102.753906 233.136719 102.882812 235.082031 C 102.949219 236.054688 102.929688 237.070312 102.992188 238.039062 L 103.3125 240.988281 C 103.375 241.484375 103.378906 241.960938 103.4375 242.457031 L 103.710938 243.894531 L 104.234375 246.835938 L 104.984375 249.703125 C 105.257812 250.667969 105.464844 251.609375 105.816406 252.527344 C 107.59375 258.003906 110.171875 263.300781 113.597656 268.019531 C 113.28125 269.355469 112.90625 270.679688 112.449219 272.046875 C 111.921875 273.667969 111.246094 275.3125 110.464844 276.859375 C 109.683594 278.410156 108.859375 279.875 107.863281 281.226562 C 106.867188 282.578125 105.699219 283.8125 104.414062 284.738281 L 103.628906 285.332031 L 103.875 286.152344 C 105.507812 291.652344 108.070312 296.535156 111.257812 301.117188 C 112.09375 302.242188 112.871094 303.347656 113.726562 304.410156 L 116.4375 307.5625 C 118.390625 309.550781 120.265625 311.582031 122.433594 313.285156 C 130.78125 320.566406 141.003906 325.3125 151.460938 328.289062 L 155.429688 329.417969 C 156.753906 329.792969 158.128906 329.980469 159.40625 330.273438 L 163.382812 331.132812 C 164.742188 331.386719 166.058594 331.554688 167.433594 331.742188 C 168.808594 331.929688 170.167969 332.179688 171.5 332.285156 L 175.621094 332.644531 L 177.679688 332.820312 L 179.710938 332.851562 C 181.078125 332.835938 182.492188 332.894531 183.859375 332.875 C 189.367188 332.671875 194.949219 331.945312 200.34375 330.214844 C 203.042969 329.347656 205.625 328.175781 208.132812 326.777344 L 209.949219 325.664062 L 211.675781 324.382812 C 212.210938 323.921875 212.8125 323.484375 213.371094 322.960938 C 213.929688 322.4375 214.40625 321.960938 215.015625 321.25 L 215.644531 320.476562 L 215.328125 319.433594 C 215.203125 318.917969 215.003906 318.179688 214.929688 317.480469 C 214.859375 316.777344 214.785156 316.078125 214.773438 315.394531 C 214.773438 313.964844 214.960938 312.585938 215.355469 311.203125 C 215.75 309.816406 216.316406 308.546875 217.070312 307.332031 C 217.394531 306.675781 217.761719 306.097656 217.992188 305.28125 C 218.101562 304.902344 218.226562 304.460938 218.351562 304.019531 C 220.160156 303.648438 221.964844 303.28125 223.75 302.765625 C 228.433594 301.375 232.882812 299.375 237.0625 296.886719 C 241.246094 294.398438 245.089844 291.410156 248.660156 288.203125 C 252.207031 285.058594 255.71875 281.566406 258.703125 277.785156 C 261.75 274.023438 264.410156 269.945312 266.703125 265.699219 C 268.902344 261.558594 270.761719 257.183594 272.226562 252.765625 C 273.851562 252.074219 275.371094 251.277344 276.90625 250.421875 C 282.605469 247.144531 287.550781 242.695312 291.699219 237.683594 C 295.847656 232.667969 299.273438 227.105469 301.925781 221.121094 C 304.324219 215.335938 306.179688 209.054688 306.816406 202.496094 " fill-opacity="1" fill-rule="nonzero"/></g></g></g></svg>